<?xml version="1.0" encoding="UTF-8"?>

<svg id="Layer_1" xmlns="http://www.w3.org/2000/svg" xmlns:xlink="http://www.w3.org/1999/xlink" version="1.1" viewBox="0 0 895.41692 228.49944">

  <defs>

    <linearGradient id="linear-gradient" x1="596.58516" y1="92.06872" x2="639.16632" y2="92.06872" gradientUnits="userSpaceOnUse">
      <stop offset="0" stop-color="#00a59c" stop-opacity="0"></stop>
      <stop offset=".66" stop-color="#00a59c"></stop>
    </linearGradient>
    <linearGradient id="linear-gradient1" x1="327.01322" y1="92.06872" x2="369.98864" y2="92.06872" gradientUnits="userSpaceOnUse">
      <stop offset="0" stop-color="#002e47" stop-opacity="0"></stop>
      <stop offset=".66" stop-color="#002e47"></stop>
    </linearGradient>
    <linearGradient id="linear-gradient2" x1="85.62075" x2="130.16265" xlink:href="#linear-gradient1"></linearGradient>
    <linearGradient id="linear-gradient3" x1="456.01981" y1="92.06872" x2="497.80564" y2="92.06872" xlink:href="#linear-gradient"></linearGradient>
  </defs>
  <g>
    <g>
      <path class="st5" d="M289.52863,143.26411c-17.08491,0-29.48567-12.1357-29.48567-28.85602v-.15789c0-16.26865,12.91655-29.01295,29.40529-29.01295,9.18933,0,15.55957,2.22485,21.98531,7.68122l.36937.31291-8.26686,9.97018-.37703-.31483c-4.16453-3.47076-7.80754-5.4803-14.10505-5.4803-8.46207,0-15.34713,7.48601-15.34713,16.68683v.15694c0,9.85152,6.81999,17.00261,16.21602,17.00261,4.25352,0,8.02763-1.06218,10.93285-3.07364v-7.13578h-12.21225v-11.45915h24.93263v24.66948l-.1732.14737c-6.93865,5.88125-14.97106,8.86302-23.87427,8.86302Z"></path>
      <path class="st5" d="M369.98864,142.31579h-42.97542v-34.15163h34.13632v11.77398h-21.10207v10.60367h29.94117v11.77398Z"></path>
      <path class="st5" d="M253.27464,142.31579h-15.37393l-11.818-17.64949h-8.78168v17.64949h-13.11463v-56.13407h25.70295c6.98841,0,12.66583,1.9837,16.41984,5.73771,3.18751,3.18655,4.8717,7.66591,4.8717,12.95291v.15789c0,8.20849-4.09754,14.34045-11.5558,17.33179l13.64955,19.95376ZM217.30103,112.96983h11.80173c5.43245,0,8.80656-2.80091,8.80656-7.30898v-.15694c0-4.76643-3.21143-7.39127-9.04388-7.39127h-11.56442v14.85719Z"></path>
      <path class="st5" d="M403.93309,142.31579h-22.00158v-56.13407h22.00158c17.26672,0,29.79954,11.73762,29.79954,27.90962v.15694c0,16.26387-12.53282,28.06751-29.79954,28.06751ZM395.04615,130.38392h8.88694c9.65153,0,16.13564-6.42095,16.13564-15.97775v-.15789c0-9.65153-6.48411-16.13564-16.13564-16.13564h-8.88694v32.27128Z"></path>
      <path class="st4" d="M523.09346,142.31579h-13.11463v-56.13407h13.11463v56.13407Z"></path>
      <path class="st4" d="M564.50814,142.31579h-26.72878v-56.13407h26.09721c6.36641,0,11.47255,1.73873,14.76532,5.02863,2.64111,2.64111,3.9253,5.82192,3.9253,9.7233v.15694c0,5.14442-2.17317,9.01804-6.6353,11.81322,6.7042,2.82101,9.70799,7.06114,9.70799,13.63711v.15694c0,9.92521-7.70227,15.61794-21.13173,15.61794ZM550.57917,130.69875h13.92897c5.37312,0,8.09748-1.84973,8.09748-5.49848v-.15694c0-3.64875-2.85737-5.49944-8.49174-5.49944h-13.53472v11.15485ZM550.57917,108.47899h10.6984c5.47743,0,8.25538-1.79614,8.25538-5.33867v-.15789c0-3.34253-2.65259-5.18365-7.46878-5.18365h-11.48499v10.68022Z"></path>
      <path class="st4" d="M701.31752,142.31579h-15.37393l-11.818-17.64949h-8.78264v17.64949h-13.11463v-56.13407h25.70295c6.98937,0,12.66679,1.9837,16.4208,5.73771,3.18751,3.18847,4.8717,7.66687,4.8717,12.95291v.15789c0,8.20849-4.09754,14.34045-11.55676,17.33179l13.65051,19.95376ZM665.34296,112.96983h11.80173c5.43245,0,8.80656-2.80091,8.80656-7.30898v-.15694c0-4.76548-3.21143-7.39032-9.04292-7.39032h-11.56537v14.85623Z"></path>
      <path class="st5" d="M164.08557,143.26028c-16.94328,0-29.72012-12.40459-29.72012-28.85506v-.15789c0-16.26769,13.12516-29.01008,29.87992-29.01008,16.94232,0,29.71916,12.40459,29.71916,28.85315v.15694c0,16.26865-13.1242,29.01295-29.87897,29.01295ZM164.08557,97.40261c-9.15393,0-16.05621,7.17405-16.05621,16.68778v.15694c0,9.60272,6.97118,16.84472,16.21602,16.84472,9.15297,0,16.05526-7.17405,16.05526-16.68683v-.15789c0-9.60272-6.97118-16.84472-16.21506-16.84472Z"></path>
      <path class="st3" d="M596.58516,97.95571h42.58116v-11.77398h-42.58116v11.77398Z"></path>
      <path class="st1" d="M327.01322,97.95571h42.97542v-11.77398h-42.97542v11.77398Z"></path>
      <path class="st4" d="M639.56058,142.31579h-42.97542v-34.15163h34.13632v11.77398h-21.10207v10.60367h29.94117v11.77398Z"></path>
      <path class="st5" d="M98.65978,142.31579h-13.03903v-34.15163h34.13728v11.77398h-21.10207l.00383,22.37765Z"></path>
      <path class="st4" d="M469.14979,142.31579h-13.03808v-34.15163h34.13632v11.77398h-21.10207l.00383,22.37765Z"></path>
    </g>
    <path class="st0" d="M130.16265,97.95571h-44.5419s0-11.77398,0-11.77398h44.5419v11.77398Z"></path>
    <path class="st2" d="M498.69288,97.95571h-42.58116v-11.77398h42.58116v11.77398Z"></path>
  </g>
  <g>
    <path class="st4" d="M740.21876,143.25238c-9.0702,0-16.42834-3.26526-21.87012-9.70511l-.44688-.52882,9.32569-8.88599.50549.56865c3.9314,4.4229,7.7122,6.31007,12.64191,6.31007,4.24778,0,6.99248-2.31575,6.99248-5.89979v-.15622c0-3.94767-3.62973-6.21175-9.95858-6.21175h-5.57216l-2.10858-8.61004,12.08032-12.15256h-20.43318v-11.77303h38.3896v10.10367l-13.012,12.42397c6.63387,1.43574,13.8706,5.38018,13.8706,15.75155v.15598c0,11.13081-8.19999,18.6094-20.40459,18.6094Z"></path>
    <path class="st4" d="M784.9914,142.31579h-15.26603l24.43108-44.25686h-25.16959v-11.85113h40.8093v9.97425l-24.80476,46.13374Z"></path>
  </g>
</svg>
